<?xml version="1.0" encoding="UTF-8" standalone="no"?>
<svg
   viewBox="0 0 128 128"
   version="1.1"
   id="svg20"
   width="128"
   height="128"
   xmlns="http://www.w3.org/2000/svg"
   xmlns:svg="http://www.w3.org/2000/svg">
  <defs
     id="defs24" />
  <text
     style="font-weight:700;font-size:20px;dominant-baseline:middle;text-anchor:middle;white-space:pre;fill:#ffffff;stroke:#000000;paint-order:fill"
     transform="matrix(-0.112843,-0.612875,0.979806,-0.165453,42.112301,149.90216)"
     x="120"
     y="40"
     id="text4" />
  <path
     d="M 170.7595,54.747984 140.57686,160.22033 c -1.12609,3.64068 -3.92434,6.77477 -7.32045,8.43239 -3.37536,1.64691 -7.78758,2.11924 -11.91855,1.1108 L 72.817689,157.31719 c -4.109915,-1.10747 -7.688612,-3.63874 -9.734284,-6.68927 -2.059262,-3.07211 -2.809333,-7.14983 -1.840633,-10.84388 L 91.425133,34.312664 c 1.126092,-3.640684 3.923377,-6.775045 7.319487,-8.432667 3.37632,-1.646641 7.78758,-2.119241 11.91855,-1.110799 l 48.52017,12.446327 c 4.10992,1.10747 7.68861,3.638735 9.73429,6.68927 2.06022,3.072381 2.81029,7.150105 1.84187,10.843189 z m -4.33278,-9.172003 c -1.75712,-2.619513 -4.38689,-4.584869 -7.98936,-5.455592 L 109.91719,27.674063 c -3.58141,-0.969752 -6.92605,-0.527887 -9.85655,0.902048 -2.90906,1.420467 -4.967194,3.527542 -5.75128,6.561921 L 64.126999,140.60941 c -0.941479,2.98102 -0.29498,5.74869 1.448276,8.3476 1.756159,2.61924 4.38593,4.58459 7.988397,5.45532 l 48.520168,12.44632 c 3.58141,0.96975 6.92605,0.52789 9.85655,-0.90205 2.91003,-1.42019 4.96816,-3.52726 5.75224,-6.56164 L 167.87527,53.922615 c 0.94148,-2.981018 0.29374,-5.748005 -1.44855,-8.346634 z"
     style="fill:none"
     id="path8" />
  <path
     d="M 170.7595,54.747984 140.57686,160.22033 c -1.12609,3.64068 -3.92434,6.77477 -7.32045,8.43239 -3.37536,1.64691 -7.78758,2.11924 -11.91855,1.1108 L 72.817689,157.31719 c -4.109915,-1.10747 -7.688612,-3.63874 -9.734284,-6.68927 -2.059262,-3.07211 -2.809333,-7.14983 -1.840633,-10.84388 L 91.425133,34.312664 c 1.126092,-3.640684 3.923377,-6.775045 7.319487,-8.432667 3.37632,-1.646641 7.78758,-2.119241 11.91855,-1.110799 l 48.52017,12.446327 c 4.10992,1.10747 7.68861,3.638735 9.73429,6.68927 2.06022,3.072381 2.81029,7.150105 1.84187,10.843189 z m -4.33278,-9.172003 c -1.75712,-2.619513 -4.38689,-4.584869 -7.98936,-5.455592 L 109.91719,27.674063 c -3.58141,-0.969752 -6.92605,-0.527887 -9.85655,0.902048 -2.90906,1.420467 -4.967194,3.527542 -5.75128,6.561921 L 64.126999,140.60941 c -0.941479,2.98102 -0.29498,5.74869 1.448276,8.3476 1.756159,2.61924 4.38593,4.58459 7.988397,5.45532 l 48.520168,12.44632 c 3.58141,0.96975 6.92605,0.52789 9.85655,-0.90205 2.91003,-1.42019 4.96816,-3.52726 5.75224,-6.56164 L 167.87527,53.922615 c 0.94148,-2.981018 0.29374,-5.748005 -1.44855,-8.346634 z"
     style="fill:none"
     id="path10" />
  <path
     d="M 170.7595,54.747984 140.57686,160.22033 c -1.12609,3.64068 -3.92434,6.77477 -7.32045,8.43239 -3.37536,1.64691 -7.78758,2.11924 -11.91855,1.1108 L 72.817689,157.31719 c -4.109915,-1.10747 -7.688612,-3.63874 -9.734284,-6.68927 -2.059262,-3.07211 -2.809333,-7.14983 -1.840633,-10.84388 L 91.425133,34.312664 c 1.126092,-3.640684 3.923377,-6.775045 7.319487,-8.432667 3.37632,-1.646641 7.78758,-2.119241 11.91855,-1.110799 l 48.52017,12.446327 c 4.10992,1.10747 7.68861,3.638735 9.73429,6.68927 2.06022,3.072381 2.81029,7.150105 1.84187,10.843189 z m -4.33278,-9.172003 c -1.75712,-2.619513 -4.38689,-4.584869 -7.98936,-5.455592 L 109.91719,27.674063 c -3.58141,-0.969752 -6.92605,-0.527887 -9.85655,0.902048 -2.90906,1.420467 -4.967194,3.527542 -5.75128,6.561921 L 64.126999,140.60941 c -0.941479,2.98102 -0.29498,5.74869 1.448276,8.3476 1.756159,2.61924 4.38593,4.58459 7.988397,5.45532 l 48.520168,12.44632 c 3.58141,0.96975 6.92605,0.52789 9.85655,-0.90205 2.91003,-1.42019 4.96816,-3.52726 5.75224,-6.56164 L 167.87527,53.922615 c 0.94148,-2.981018 0.29374,-5.748005 -1.44855,-8.346634 z"
     style="fill:none"
     id="path12" />
  <text
     style="font-size:17.5px;font-family:Arial, sans-serif;white-space:pre;fill:#333333"
     x="485.58899"
     y="175.439"
     id="text16" />
  <text
     xml:space="preserve"
     style="font-style:normal;font-weight:normal;font-size:40px;line-height:1.25;font-family:sans-serif;fill:#000000;fill-opacity:1;stroke:none"
     x="198.42233"
     y="98.300964"
     id="text8713"><tspan
       id="tspan8711"
       x="198.42233"
       y="98.300964" /></text>
  <text
     style="font-weight:700;font-size:105.776px;font-family:'Century Gothic';white-space:pre;fill:#0054bb;fill-opacity:1;stroke:#005070;stroke-width:1.88887"
     transform="scale(1.0065263,0.99351602)"
     x="18.985151"
     y="100.9696"
     id="text14-2">Q</text>
</svg>
