<?xml version="1.0" encoding="UTF-8" standalone="no"?>
<svg
   viewBox="0 0 512 200"
   version="1.1"
   id="svg20"
   sodipodi:docname="logo.svg"
   width="512"
   height="200"
   inkscape:version="1.1.1 (3bf5ae0d25, 2021-09-20)"
   xmlns:inkscape="http://www.inkscape.org/namespaces/inkscape"
   xmlns:sodipodi="http://sodipodi.sourceforge.net/DTD/sodipodi-0.dtd"
   xmlns="http://www.w3.org/2000/svg"
   xmlns:svg="http://www.w3.org/2000/svg">
  <defs
     id="defs24" />
  <sodipodi:namedview
     id="namedview22"
     pagecolor="#ffffff"
     bordercolor="#666666"
     borderopacity="1.0"
     inkscape:pageshadow="2"
     inkscape:pageopacity="0.0"
     inkscape:pagecheckerboard="0"
     showgrid="false"
     height="499px"
     inkscape:zoom="1.648"
     inkscape:cx="199.93932"
     inkscape:cy="62.196602"
     inkscape:window-width="1920"
     inkscape:window-height="1009"
     inkscape:window-x="1272"
     inkscape:window-y="-8"
     inkscape:window-maximized="1"
     inkscape:current-layer="svg20" />
  <path
          d="m 97.49881,24.054526 25.52573,106.594324 c 1.61527,6.7453 -3.3757,13.63401 -11.14736,15.38606 l -48.894131,11.02366 c -7.771427,1.75303 -15.382593,-2.29579 -16.997863,-9.04109 L 20.459456,41.423157 c -1.61527,-6.745295 3.376672,-13.63424 11.148332,-15.386293 L 80.501921,15.013205 c 7.771427,-1.753025 15.381621,2.296027 16.996889,9.041321 z"
          opacity="1"
          stroke-width="3px"
          style="fill:#0054bb;paint-order:fill"
          id="path2" />
  <path
          d="M 173.70338,56.842302 143.52075,162.31464 c -1.91018,6.67507 -9.71152,10.48164 -17.4239,8.50345 L 77.576682,158.37176 C 69.8643,156.39357 65.160709,149.37879 67.070887,142.70373 L 97.25325,37.232351 c 1.91018,-6.675063 9.71055,-10.481911 17.42293,-8.503718 l 48.52017,12.446327 c 7.71238,1.978193 12.41694,8.993241 10.50703,15.667342"
          opacity="1"
          stroke-width="3px"
          style="fill:#009fe2;paint-order:fill"
          id="path6" />
  <text
     style="font-weight:700;font-size:20px;dominant-baseline:middle;text-anchor:middle;white-space:pre;fill:#ffffff;stroke:#000000;paint-order:fill"
     transform="matrix(-0.112843,-0.612875,0.979806,-0.165453,42.112301,149.90216)"
     x="120"
     y="40"
     id="text4" />

  <path
     d="M 170.7595,54.747984 140.57686,160.22033 c -1.12609,3.64068 -3.92434,6.77477 -7.32045,8.43239 -3.37536,1.64691 -7.78758,2.11924 -11.91855,1.1108 L 72.817689,157.31719 c -4.109915,-1.10747 -7.688612,-3.63874 -9.734284,-6.68927 -2.059262,-3.07211 -2.809333,-7.14983 -1.840633,-10.84388 L 91.425133,34.312664 c 1.126092,-3.640684 3.923377,-6.775045 7.319487,-8.432667 3.37632,-1.646641 7.78758,-2.119241 11.91855,-1.110799 l 48.52017,12.446327 c 4.10992,1.10747 7.68861,3.638735 9.73429,6.68927 2.06022,3.072381 2.81029,7.150105 1.84187,10.843189 z m -4.33278,-9.172003 c -1.75712,-2.619513 -4.38689,-4.584869 -7.98936,-5.455592 L 109.91719,27.674063 c -3.58141,-0.969752 -6.92605,-0.527887 -9.85655,0.902048 -2.90906,1.420467 -4.967194,3.527542 -5.75128,6.561921 L 64.126999,140.60941 c -0.941479,2.98102 -0.29498,5.74869 1.448276,8.3476 1.756159,2.61924 4.38593,4.58459 7.988397,5.45532 l 48.520168,12.44632 c 3.58141,0.96975 6.92605,0.52789 9.85655,-0.90205 2.91003,-1.42019 4.96816,-3.52726 5.75224,-6.56164 L 167.87527,53.922615 c 0.94148,-2.981018 0.29374,-5.748005 -1.44855,-8.346634 z"
     style="fill:none"
     id="path8" />
  <path
     d="M 170.7595,54.747984 140.57686,160.22033 c -1.12609,3.64068 -3.92434,6.77477 -7.32045,8.43239 -3.37536,1.64691 -7.78758,2.11924 -11.91855,1.1108 L 72.817689,157.31719 c -4.109915,-1.10747 -7.688612,-3.63874 -9.734284,-6.68927 -2.059262,-3.07211 -2.809333,-7.14983 -1.840633,-10.84388 L 91.425133,34.312664 c 1.126092,-3.640684 3.923377,-6.775045 7.319487,-8.432667 3.37632,-1.646641 7.78758,-2.119241 11.91855,-1.110799 l 48.52017,12.446327 c 4.10992,1.10747 7.68861,3.638735 9.73429,6.68927 2.06022,3.072381 2.81029,7.150105 1.84187,10.843189 z m -4.33278,-9.172003 c -1.75712,-2.619513 -4.38689,-4.584869 -7.98936,-5.455592 L 109.91719,27.674063 c -3.58141,-0.969752 -6.92605,-0.527887 -9.85655,0.902048 -2.90906,1.420467 -4.967194,3.527542 -5.75128,6.561921 L 64.126999,140.60941 c -0.941479,2.98102 -0.29498,5.74869 1.448276,8.3476 1.756159,2.61924 4.38593,4.58459 7.988397,5.45532 l 48.520168,12.44632 c 3.58141,0.96975 6.92605,0.52789 9.85655,-0.90205 2.91003,-1.42019 4.96816,-3.52726 5.75224,-6.56164 L 167.87527,53.922615 c 0.94148,-2.981018 0.29374,-5.748005 -1.44855,-8.346634 z"
     style="fill:none"
     id="path10" />
  <path
     d="M 170.7595,54.747984 140.57686,160.22033 c -1.12609,3.64068 -3.92434,6.77477 -7.32045,8.43239 -3.37536,1.64691 -7.78758,2.11924 -11.91855,1.1108 L 72.817689,157.31719 c -4.109915,-1.10747 -7.688612,-3.63874 -9.734284,-6.68927 -2.059262,-3.07211 -2.809333,-7.14983 -1.840633,-10.84388 L 91.425133,34.312664 c 1.126092,-3.640684 3.923377,-6.775045 7.319487,-8.432667 3.37632,-1.646641 7.78758,-2.119241 11.91855,-1.110799 l 48.52017,12.446327 c 4.10992,1.10747 7.68861,3.638735 9.73429,6.68927 2.06022,3.072381 2.81029,7.150105 1.84187,10.843189 z m -4.33278,-9.172003 c -1.75712,-2.619513 -4.38689,-4.584869 -7.98936,-5.455592 L 109.91719,27.674063 c -3.58141,-0.969752 -6.92605,-0.527887 -9.85655,0.902048 -2.90906,1.420467 -4.967194,3.527542 -5.75128,6.561921 L 64.126999,140.60941 c -0.941479,2.98102 -0.29498,5.74869 1.448276,8.3476 1.756159,2.61924 4.38593,4.58459 7.988397,5.45532 l 48.520168,12.44632 c 3.58141,0.96975 6.92605,0.52789 9.85655,-0.90205 2.91003,-1.42019 4.96816,-3.52726 5.75224,-6.56164 L 167.87527,53.922615 c 0.94148,-2.981018 0.29374,-5.748005 -1.44855,-8.346634 z"
     style="fill:none"
     id="path12" />
  <text
     style="font-weight:700;font-size:67.0187px;font-family:'Century Gothic';white-space:pre;fill:#009fe2;stroke:#005070;stroke-width:1.19677;stroke-opacity:0"
     transform="scale(0.99820074,1.0018025)"
     x="328.25278"
     y="123.90013"
     id="text14">Land</text>
  <text
     style="font-size:17.5px;font-family:Arial, sans-serif;white-space:pre;fill:#333333"
     x="485.58899"
     y="175.439"
     id="text16" />
  <text
     xml:space="preserve"
     style="font-style:normal;font-weight:normal;font-size:40px;line-height:1.25;font-family:sans-serif;fill:#000000;fill-opacity:1;stroke:none"
     x="198.42233"
     y="98.300964"
     id="text8713"><tspan
       sodipodi:role="line"
       id="tspan8711"
       x="198.42233"
       y="98.300964" /></text>
  <text
     style="font-weight:700;font-size:67.0187px;font-family:'Century Gothic';white-space:pre;fill:#0054bb;fill-opacity:1;stroke:#005070;stroke-width:1.19677"
     transform="scale(0.99820074,1.0018025)"
     x="183.74936"
     y="123.82519"
     id="text14-2">Quiz</text>
</svg>
